<?xml version="1.0" encoding="UTF-8" standalone="no"?>
<svg width="62px" height="62px" viewBox="0 0 62 62" version="1.1" xmlns="http://www.w3.org/2000/svg" xmlns:xlink="http://www.w3.org/1999/xlink">
    <!-- Generator: Sketch 42 (36781) - http://www.bohemiancoding.com/sketch -->
    <title>Energy Icon</title>
    <desc>Created with Sketch.</desc>
    <defs></defs>
    <g id="Page-1" stroke="none" stroke-width="1" fill="none" fill-rule="evenodd">
        <g id="Energy-Icon" transform="translate(1.000000, 1.000000)">
            <circle id="Oval-2-Copy-2" stroke="#000000" fill="#FFFFFF" cx="30" cy="30" r="30"></circle>
            <g id="Capa_1" transform="translate(12.000000, 18.000000)" fill-rule="nonzero" fill="#000000">
                <path d="M31.0852309,1.6107086 C31.508121,1.6107086 31.8527866,1.95453822 31.8527866,2.37826433 L31.8527866,5.54438694 L31.8527866,7.07949841 L33.3878981,7.07949841 L35.1478901,7.07949841 C35.5707803,7.07949841 35.9154459,7.42332803 35.9154459,7.84705414 L35.9154459,16.2269904 C35.9154459,16.6498806 35.5707803,16.9945462 35.1478901,16.9945462 L33.3878981,16.9945462 L31.8527866,16.9945462 L31.8527866,18.5296576 L31.8527866,21.6957803 C31.8527866,22.1186704 31.508121,22.463336 31.0852309,22.463336 L2.3026672,22.463336 C1.87822452,22.463336 1.53511146,22.1186704 1.53511146,21.6957803 L1.53511146,2.37826433 C1.53511146,1.95453822 1.87822452,1.6107086 2.3026672,1.6107086 L31.0852309,1.6107086 L31.0852309,1.6107086 Z M31.0852309,0.0755971338 L2.3026672,0.0755971338 C1.03077229,0.0755971338 0,1.10720541 0,2.37826433 L0,21.6963774 C0,22.9666003 1.03077229,23.9990446 2.3026672,23.9990446 L31.0852309,23.9990446 C32.3554538,23.9990446 33.3878981,22.9667197 33.3878981,21.6963774 L33.3878981,18.5302548 L35.1478901,18.5302548 C36.4181131,18.5302548 37.4504379,17.4979299 37.4504379,16.2275876 L37.4504379,7.84681529 C37.4504379,6.57575637 36.4181131,5.54414809 35.1478901,5.54414809 L33.3878981,5.54414809 L33.3878981,2.37826433 C33.3877787,1.10720541 32.3562898,0.0755971338 31.0852309,0.0755971338 L31.0852309,0.0755971338 Z M12.8063694,12.2226115 L16.5764331,12.2226115 L14.1003583,17.4878981 L21.1086783,10.9170382 L17.3662022,10.9201433 L19.1223726,6.5866242 L12.8063694,12.2226115 Z" id="Shape"></path>
            </g>
        </g>
    </g>
</svg>