<?xml version="1.0" encoding="UTF-8" standalone="no"?>
<svg width="62px" height="62px" viewBox="0 0 62 62" version="1.1" xmlns="http://www.w3.org/2000/svg" xmlns:xlink="http://www.w3.org/1999/xlink">
    <!-- Generator: Sketch 42 (36781) - http://www.bohemiancoding.com/sketch -->
    <title>Rocket Icon</title>
    <desc>Created with Sketch.</desc>
    <defs></defs>
    <g id="Page-1" stroke="none" stroke-width="1" fill="none" fill-rule="evenodd">
        <g id="Rocket-Icon" transform="translate(1.000000, 1.000000)">
            <circle id="Oval" stroke="#000000" fill="#FFFFFF" cx="30" cy="30" r="30"></circle>
            <g id="Layer_1" transform="translate(12.000000, 12.000000)" fill-rule="nonzero" fill="#000000">
                <path d="M5.08688965,27.1795166 C4.73518066,26.8279541 4.16491699,26.8279541 3.81313477,27.1795166 L1.96340332,29.029248 C1.61169434,29.380957 1.61169434,29.9512207 1.96340332,30.3030029 C2.13925781,30.4787842 2.36975098,30.5668213 2.60024414,30.5668213 C2.83081055,30.5668213 3.06137695,30.4788574 3.2371582,30.3030029 L5.08688965,28.4532715 C5.43859863,28.1015625 5.43859863,27.5312988 5.08688965,27.1795166 Z" id="Shape"></path>
                <path d="M7.70332031,29.7959473 C7.35175781,29.4443848 6.78134766,29.4443848 6.42971191,29.7959473 L0.263745117,35.9619873 C-0.0879638672,36.3136963 -0.0879638672,36.88396 0.263745117,37.2357422 C0.439526367,37.4115234 0.670092773,37.4995605 0.900585938,37.4995605 C1.1310791,37.4995605 1.36157227,37.4115967 1.53742676,37.2357422 L7.70332031,31.0697021 C8.05510254,30.7179199 8.0550293,30.1476562 7.70332031,29.7959473 Z" id="Shape"></path>
                <path d="M10.3198975,32.4125977 C9.96811523,32.0608887 9.3979248,32.0608154 9.04628906,32.4125244 L5.96330566,35.4955078 C5.61159668,35.8472168 5.61152344,36.4174805 5.96330566,36.7692627 C6.13916016,36.9450439 6.36965332,37.0330811 6.60014648,37.0330811 C6.83063965,37.0330811 7.06113281,36.9451172 7.2369873,36.7692627 L10.3199707,33.6864258 C10.6715332,33.3346436 10.6716797,32.7643799 10.3198975,32.4125977 Z" id="Shape"></path>
                <path d="M27.3044678,10.1953857 C26.2556396,9.14655762 24.8610352,8.56882324 23.3776611,8.56882324 C21.8942139,8.56882324 20.4996826,9.14648438 19.450708,10.1953857 C18.4018799,11.2442139 17.8241455,12.6388916 17.8241455,14.1223389 C17.8241455,15.6057861 18.4018799,17.0003174 19.450708,18.049292 C20.4995361,19.0981201 21.8941406,19.6757813 23.3776611,19.6757813 C24.8610352,19.6757813 26.2555664,19.0981201 27.3044678,18.049292 C29.4697266,15.8838135 29.4697266,12.3607178 27.3044678,10.1953857 Z M26.0307129,16.7755371 C25.3220947,17.4842285 24.379834,17.8745361 23.3775879,17.8745361 C22.3752686,17.8745361 21.4330078,17.4842285 20.7243896,16.7755371 C20.015625,16.0668457 19.6253906,15.1246582 19.6253906,14.1223389 C19.6253906,13.1200195 20.015625,12.177832 20.7243896,11.4691406 C21.4330078,10.7604492 22.3752686,10.3701416 23.3775879,10.3701416 C24.3797607,10.3701416 25.3220947,10.7604492 26.0307129,11.4691406 C27.4936523,12.9320801 27.4936523,15.3125977 26.0307129,16.7755371 Z" id="Shape"></path>
                <path d="M36.8722412,1.265625 C36.7890381,0.954345703 36.5459473,0.711328125 36.234668,0.628051758 C33.154834,-0.195263672 29.8945313,-0.208813477 26.8064209,0.588793945 C26.3250732,0.71315918 25.8506104,0.859277344 25.382373,1.02172852 C25.3418701,1.03278809 25.3019531,1.0467041 25.2629883,1.06347656 C22.6916016,1.97600098 20.3395752,3.45432129 18.3905273,5.39780273 C18.3893555,5.39890137 18.3882568,5.4 18.3872314,5.40102539 C18.3821777,5.4060791 18.3769775,5.41083984 18.3719238,5.41589355 C18.3636475,5.42416992 18.356543,5.43310547 18.3487061,5.44152832 C18.3411621,5.44973145 18.3330322,5.45720215 18.3256348,5.46577148 L15.567041,8.67634277 C11.2274414,8.62844238 7.01008301,10.3431152 3.93515625,13.418042 C2.93532715,14.4178711 2.07260742,15.5384033 1.37102051,16.7485107 C1.22944336,16.9927002 1.21054688,17.2891113 1.3199707,17.5493408 C1.42939453,17.8096436 1.65446777,18.0034424 1.9279541,18.0729492 L6.93383789,19.34729 L5.95437012,22.0072998 C5.47067871,23.3210449 5.79777832,24.8094727 6.78764648,25.7993408 L11.7010986,30.712793 C12.3873047,31.3988525 13.312793,31.7666016 14.2538086,31.7666016 C14.6704102,31.7666016 15.0900879,31.694458 15.4932861,31.5460693 L18.1535156,30.5666016 L19.4280762,35.5727051 C19.497583,35.8461914 19.6915283,36.0713379 19.9516846,36.1807617 C20.0635986,36.2277832 20.1823975,36.2510742 20.3007568,36.2510742 C20.4573486,36.2510742 20.6134277,36.2102783 20.7525146,36.1295654 C21.9624023,35.4280518 23.0828613,34.5654053 24.0829834,33.5654297 C27.1581299,30.4902832 28.8719971,26.2722656 28.8246094,21.9328857 L32.0348145,19.174585 C32.0431641,19.1674072 32.0504883,19.1594238 32.0586182,19.1519531 C32.0672607,19.1439697 32.076416,19.1366455 32.0848389,19.1282959 C32.0899658,19.1231689 32.0947266,19.1178223 32.0998535,19.1128418 C32.1008057,19.1117432 32.1019043,19.110791 32.1029297,19.1096924 C34.0464111,17.1607178 35.5247314,14.8088379 36.4372559,12.2375244 C36.4538086,12.1983398 36.4678711,12.1582764 36.4789307,12.1175537 C36.6413818,11.6495361 36.7875,11.1750732 36.911792,10.6937988 C37.7091797,7.60576172 37.6955566,4.34553223 36.8722412,1.265625 Z M3.57854004,16.6345459 C4.06142578,15.9438721 4.60715332,15.2934814 5.20883789,14.6917236 C7.56430664,12.3362549 10.6740234,10.8804932 13.9575439,10.5496582 L7.80498047,17.7104736 L3.57854004,16.6345459 Z M7.64443359,22.6297119 L8.48269043,20.3532715 L9.64445801,21.5150391 L7.88847656,24.3252686 C7.53120117,23.842749 7.43342285,23.2029785 7.64443359,22.6297119 Z M9.18493652,25.6495605 L10.9516846,22.8221924 L12.178125,24.0485596 L9.88103027,26.3455811 L9.18493652,25.6495605 Z M11.1546387,27.6192627 L13.4517334,25.3222412 L14.6781006,26.5486084 L11.8507324,28.3153564 L11.1546387,27.6192627 Z M14.8705811,29.8558594 C14.2972412,30.0667969 13.6576172,29.9690918 13.1750977,29.6118164 L15.9852539,27.855835 L17.1470215,29.0176025 L14.8705811,29.8558594 Z M22.8090088,32.2918945 C22.207251,32.8935791 21.5567871,33.4391602 20.8661865,33.9221924 L19.7900391,29.6953857 L26.9510742,23.5425293 C26.620459,26.8259766 25.1644043,29.9362061 22.8090088,32.2918945 Z M30.829834,17.8350586 L18.8258057,28.1490234 L9.35134277,18.6745605 L16.6374756,10.1945068 C16.6445801,10.1866699 16.6513184,10.1784668 16.6582031,10.1703369 L19.6652344,6.67060547 C21.3041748,5.03708496 23.2581299,3.76831055 25.3929932,2.93664551 L34.5636475,12.107373 C33.7321289,14.2422363 32.4633545,16.1961914 30.829834,17.8350586 Z M35.1831299,10.1794922 L27.3210205,2.31723633 C29.9202393,1.65681152 32.6522461,1.63095703 35.2598877,2.24040527 C35.8693359,4.84797363 35.8435547,7.58005371 35.1831299,10.1794922 Z" id="Shape"></path>
            </g>
        </g>
    </g>
</svg>