<?xml version="1.0" encoding="UTF-8" standalone="no"?>
<svg width="62px" height="62px" viewBox="0 0 62 62" version="1.1" xmlns="http://www.w3.org/2000/svg" xmlns:xlink="http://www.w3.org/1999/xlink">
    <!-- Generator: Sketch 42 (36781) - http://www.bohemiancoding.com/sketch -->
    <title>Time Icon</title>
    <desc>Created with Sketch.</desc>
    <defs></defs>
    <g id="Page-1" stroke="none" stroke-width="1" fill="none" fill-rule="evenodd">
        <g id="Time-Icon" transform="translate(1.000000, 1.000000)">
            <circle id="Oval-2-Copy" stroke="#000000" fill="#FFFFFF" cx="30" cy="30" r="30"></circle>
            <g id="Capa_1" transform="translate(15.000000, 12.000000)" fill-rule="nonzero" fill="#000000">
                <g id="Group">
                    <ellipse id="Oval" cx="15.625" cy="16.25" rx="0.625" ry="0.625"></ellipse>
                    <ellipse id="Oval" cx="17.5" cy="15" rx="0.625" ry="0.625"></ellipse>
                    <ellipse id="Oval" cx="13.75" cy="15" rx="0.625" ry="0.625"></ellipse>
                    <ellipse id="Oval" cx="11.875" cy="13.75" rx="0.625" ry="0.625"></ellipse>
                    <ellipse id="Oval" cx="19.375" cy="13.75" rx="0.625" ry="0.625"></ellipse>
                    <ellipse id="Oval" cx="21.25" cy="12.5" rx="0.625" ry="0.625"></ellipse>
                    <ellipse id="Oval" cx="10" cy="12.5" rx="0.625" ry="0.625"></ellipse>
                    <ellipse id="Oval" cx="15.625" cy="13.75" rx="0.625" ry="0.625"></ellipse>
                    <ellipse id="Oval" cx="15.625" cy="21.25" rx="0.625" ry="0.625"></ellipse>
                    <ellipse id="Oval" cx="15.625" cy="23.125" rx="0.625" ry="0.625"></ellipse>
                    <ellipse id="Oval" cx="15.625" cy="25" rx="0.625" ry="0.625"></ellipse>
                    <ellipse id="Oval" cx="15.625" cy="26.875" rx="0.625" ry="0.625"></ellipse>
                    <ellipse id="Oval" cx="15.625" cy="28.75" rx="0.625" ry="0.625"></ellipse>
                    <ellipse id="Oval" cx="15.625" cy="30.625" rx="0.625" ry="0.625"></ellipse>
                    <path d="M30.625,36.25 L28.75,36.25 L28.75,33.75 L25.625,33.75 L25.625,27.36125 C25.625,25.67375 24.78625,24.10625 23.381875,23.17 L16.751875,18.75 L23.381875,14.33 C24.78625,13.39375 25.625,11.82625 25.625,10.13875 L25.625,3.75 L28.75,3.75 L28.75,1.25 L30.625,1.25 C30.97,1.25 31.25,0.970625 31.25,0.625 C31.25,0.279375 30.97,0 30.625,0 L28.75,0 L28.125,0 L3.125,0 L2.5,0 L0.625,0 C0.28,0 0,0.279375 0,0.625 C0,0.970625 0.28,1.25 0.625,1.25 L2.5,1.25 L2.5,3.75 L5.625,3.75 L5.625,10.13875 C5.625,11.82625 6.46375,13.39375 7.868125,14.33 L14.498125,18.75 L7.868125,23.17 C6.46375,24.10625 5.625,25.67375 5.625,27.36125 L5.625,33.75 L2.5,33.75 L2.5,36.25 L0.625,36.25 C0.28,36.25 0,36.529375 0,36.875 C0,37.220625 0.28,37.5 0.625,37.5 L2.5,37.5 L3.125,37.5 L28.125,37.5 L28.75,37.5 L30.625,37.5 C30.97,37.5 31.25,37.220625 31.25,36.875 C31.25,36.529375 30.97,36.25 30.625,36.25 Z M3.75,2.5 L3.75,1.25 L27.5,1.25 L27.5,2.5 L25.625,2.5 L5.625,2.5 L3.75,2.5 Z M8.56125,13.29 C7.505625,12.585625 6.875,11.4075 6.875,10.13875 L6.875,3.75 L24.375,3.75 L24.375,10.13875 C24.375,11.4075 23.744375,12.585625 22.68875,13.29 L15.625,17.99875 L8.56125,13.29 Z M6.875,27.36125 C6.875,26.0925 7.505625,24.914375 8.56125,24.21 L15.625,19.50125 L22.68875,24.21 C23.744375,24.914375 24.375,26.0925 24.375,27.36125 L24.375,33.75 L6.875,33.75 L6.875,27.36125 Z M3.75,35 L5.625,35 L25.625,35 L27.5,35 L27.5,36.25 L3.75,36.25 L3.75,35 Z" id="Shape"></path>
                </g>
            </g>
        </g>
    </g>
</svg>