<?xml version="1.0" encoding="UTF-8" standalone="no"?>
<svg width="62px" height="62px" viewBox="0 0 62 62" version="1.1" xmlns="http://www.w3.org/2000/svg" xmlns:xlink="http://www.w3.org/1999/xlink">
    <!-- Generator: Sketch 42 (36781) - http://www.bohemiancoding.com/sketch -->
    <title>Flight Icon</title>
    <desc>Created with Sketch.</desc>
    <defs></defs>
    <g id="Page-1" stroke="none" stroke-width="1" fill="none" fill-rule="evenodd">
        <g id="Flight-Icon" transform="translate(1.000000, 1.000000)">
            <circle id="Oval-2-Copy-3" stroke="#000000" fill="#FFFFFF" cx="30" cy="30" r="30"></circle>
            <g id="Capa_1" transform="translate(12.000000, 21.000000)" fill-rule="nonzero" fill="#000000">
                <g id="Group">
                    <path d="M18.7498414,8.05504757 C17.0770085,8.05504757 15.7161469,9.41598837 15.7161469,11.0887421 C15.7161469,12.7614958 17.0770877,14.1224366 18.7498414,14.1224366 C20.4225951,14.1224366 21.7835359,12.7614958 21.7835359,11.0887421 C21.7835359,9.41598837 20.4225951,8.05504757 18.7498414,8.05504757 Z M18.7498414,12.9332188 C17.7327431,12.9332188 16.9053647,12.1057611 16.9053647,11.0887421 C16.9053647,10.071723 17.7328224,9.24426533 18.7498414,9.24426533 C19.7668605,9.24426533 20.5943182,10.071723 20.5943182,11.0887421 C20.5943182,12.1057611 19.7668605,12.9332188 18.7498414,12.9332188 Z" id="Shape"></path>
                    <path d="M22.0247886,6.95755814 C21.0986258,6.2220666 19.9356501,5.81693975 18.7500793,5.81693975 C17.5640328,5.81693975 16.40074,6.22198732 15.4746564,6.95755814 C15.2174683,7.16178647 15.1745772,7.5358351 15.3788848,7.79302326 C15.5831131,8.05013214 15.9570032,8.09302326 16.2143499,7.88879493 C16.9413584,7.31139006 17.8182082,7.00615751 18.7501586,7.00615751 C19.6815539,7.00615751 20.558166,7.31139006 21.2852537,7.88879493 C21.3945825,7.9756871 21.5250793,8.01778541 21.654704,8.01778541 C21.8298362,8.01778541 22.0033034,7.9407241 22.1207188,7.79294397 C22.3248679,7.5358351 22.2819767,7.16178647 22.0247886,6.95755814 Z" id="Shape"></path>
                    <path d="M37.2139535,8.025 C36.9332981,7.85438689 36.567574,7.94349894 36.3969609,8.22407505 L35.6192918,9.50272199 L25.3420719,9.50272199 C25.1955603,7.86548626 24.4507135,6.39894292 23.3280127,5.32214588 L24.3791226,5.32214588 C24.7075053,5.32214588 24.9737315,5.05591966 24.9737315,4.727537 C24.9737315,4.39915433 24.7075053,4.13292812 24.3791226,4.13292812 L21.6214059,4.13292812 C20.9218288,3.79479387 20.1537526,3.57756342 19.3445296,3.5051797 L19.3445296,0.604915433 C19.3445296,0.27653277 19.0783034,0.0103065539 18.7499207,0.0103065539 C18.4215381,0.0103065539 18.1553118,0.27653277 18.1553118,0.604915433 L18.1553118,3.5051797 C17.3461681,3.57756342 16.5780127,3.79479387 15.8784355,4.13292812 L13.1211945,4.13292812 C12.7928118,4.13292812 12.5265856,4.39915433 12.5265856,4.727537 C12.5265856,5.05591966 12.7928118,5.32214588 13.1211945,5.32214588 L14.1717495,5.32214588 C13.0490486,6.39894292 12.3042019,7.86548626 12.1576903,9.50272199 L1.88039112,9.50272199 L1.10272199,8.22407505 C0.932108879,7.94349894 0.566305497,7.85438689 0.285729387,8.025 C0.00515327696,8.19569239 -0.084038055,8.56149577 0.086654334,8.8419926 L1.03802854,10.4062896 C1.14593023,10.5836416 1.33850423,10.6919397 1.54606237,10.6919397 L6.37214588,10.6919397 C5.86815539,11.282426 5.56284355,12.0474894 5.56284355,12.8828753 C5.56284355,14.7466966 7.07909619,16.2629493 8.94291755,16.2629493 C10.8067389,16.2629493 12.3230708,14.7466966 12.3230708,12.8828753 C12.3230708,12.0474894 12.017759,11.2825053 11.5137685,10.6919397 L12.157611,10.6919397 C12.4594345,14.0646406 15.2999207,16.7175476 18.7498414,16.7175476 C22.1996829,16.7175476 25.0401691,14.0646406 25.3419926,10.6919397 L25.9858351,10.6919397 C25.4818446,11.282426 25.1765328,12.0474894 25.1765328,12.8828753 C25.1765328,14.7466966 26.6928647,16.2629493 28.556686,16.2629493 C30.4205074,16.2629493 31.93676,14.7466966 31.93676,12.8828753 C31.93676,12.0474894 31.6314482,11.2825053 31.1274577,10.6919397 L35.9535412,10.6919397 C36.1611786,10.6919397 36.3536734,10.5836416 36.4615751,10.4062896 L37.4129493,8.8419926 C37.5836416,8.56149577 37.4945296,8.19569239 37.2139535,8.025 Z M11.1339323,12.8828753 C11.1339323,14.0909619 10.1510835,15.0737315 8.94299683,15.0737315 C7.73491015,15.0737315 6.75214059,14.0909619 6.75214059,12.8828753 C6.75214059,11.6747886 7.73491015,10.6919397 8.94299683,10.6919397 C10.1510835,10.6919397 11.1339323,11.6748679 11.1339323,12.8828753 Z M18.7498414,15.5284091 C15.7551533,15.5284091 13.3188425,13.0920983 13.3188425,10.0974101 C13.3188425,7.10280127 15.7551533,4.66641121 18.7498414,4.66641121 C21.7444503,4.66641121 24.1808404,7.10272199 24.1808404,10.0974101 C24.1808404,13.0920983 21.7445296,15.5284091 18.7498414,15.5284091 Z M30.7475423,12.8828753 C30.7475423,14.0909619 29.7647727,15.0737315 28.556686,15.0737315 C27.3485994,15.0737315 26.3657505,14.0909619 26.3657505,12.8828753 C26.3657505,11.6747886 27.3485994,10.6919397 28.556686,10.6919397 C29.7647727,10.6919397 30.7475423,11.6748679 30.7475423,12.8828753 Z" id="Shape"></path>
                    <path d="M8.94299683,14.5981237 C9.88882135,14.5981237 10.6582452,13.8286998 10.6582452,12.8828753 C10.6582452,11.93713 9.88882135,11.1677061 8.94299683,11.1677061 C7.99725159,11.1677061 7.2278277,11.93713 7.2278277,12.8828753 C7.2278277,13.8286998 7.99725159,14.5981237 8.94299683,14.5981237 Z M8.94299683,12.3569239 C9.2330074,12.3569239 9.46902748,12.5928647 9.46902748,12.8828753 C9.46902748,13.1728858 9.2330074,13.4089059 8.94299683,13.4089059 C8.65298626,13.4089059 8.41704545,13.1728858 8.41704545,12.8828753 C8.41704545,12.5928647 8.65298626,12.3569239 8.94299683,12.3569239 Z" id="Shape"></path>
                    <path d="M28.556686,14.5981237 C29.5024313,14.5981237 30.2718552,13.8286998 30.2718552,12.8828753 C30.2718552,11.93713 29.5024313,11.1677061 28.556686,11.1677061 C27.6108615,11.1677061 26.8414376,11.93713 26.8414376,12.8828753 C26.8414376,13.8286998 27.6108615,14.5981237 28.556686,14.5981237 Z M28.556686,12.3569239 C28.8466966,12.3569239 29.0826374,12.5928647 29.0826374,12.8828753 C29.0826374,13.1728858 28.8466966,13.4089059 28.556686,13.4089059 C28.2666755,13.4089059 28.0306554,13.1728858 28.0306554,12.8828753 C28.0306554,12.5928647 28.2666755,12.3569239 28.556686,12.3569239 Z" id="Shape"></path>
                </g>
            </g>
        </g>
    </g>
</svg>