<?xml version="1.0" encoding="UTF-8" standalone="no"?>
<svg width="62px" height="62px" viewBox="0 0 62 62" version="1.1" xmlns="http://www.w3.org/2000/svg" xmlns:xlink="http://www.w3.org/1999/xlink">
    <!-- Generator: Sketch 42 (36781) - http://www.bohemiancoding.com/sketch -->
    <title>Medicine Icon</title>
    <desc>Created with Sketch.</desc>
    <defs></defs>
    <g id="Page-1" stroke="none" stroke-width="1" fill="none" fill-rule="evenodd">
        <g id="Medicine-Icon" transform="translate(1.000000, 1.000000)">
            <circle id="Oval-2-Copy-4" stroke="#000000" fill="#FFFFFF" cx="30" cy="30" r="30"></circle>
            <g id="Layer_1" transform="translate(12.000000, 13.500000)" fill-rule="nonzero" fill="#000000">
                <path d="M35.7596191,5.93920898 L29.0222168,5.93920898 L29.0222168,3.55004883 C29.0222168,1.62143555 27.4530762,0.0522949219 25.5244629,0.0522949219 L11.9377441,0.0522949219 C10.0090576,0.0522949219 8.43991699,1.62143555 8.43991699,3.55004883 L8.43991699,5.93920898 L1.74038086,5.93920898 C0.780761719,5.93920898 0,6.7199707 0,7.67958984 L0,30.2873291 C0,31.2470215 0.780761719,32.02771 1.74038086,32.02771 L35.7596191,32.02771 C36.7193115,32.02771 37.5,31.2469482 37.5,30.2873291 L37.5,7.67958984 C37.5,6.7199707 36.7192383,5.93920898 35.7596191,5.93920898 Z M9.55078125,3.55004883 L9.55078125,3.55004883 C9.55078125,2.23395996 10.621582,1.16323242 11.9377441,1.16323242 L25.5243896,1.16323242 C26.8404785,1.16323242 27.9112793,2.23395996 27.9112793,3.55004883 L27.9112793,5.9255127 L26.174707,5.9255127 L26.174707,3.55004883 C26.174707,3.19753418 25.8769043,2.89973145 25.5243896,2.89973145 L11.9377441,2.89973145 C11.5852295,2.89973145 11.2874268,3.19753418 11.2874268,3.55004883 L11.2874268,5.9255127 L9.55078125,5.9255127 L9.55078125,3.55004883 Z M25.063916,4.01066895 L25.063916,5.93920898 L12.398291,5.93920898 L12.398291,4.01066895 L25.063916,4.01066895 Z M1.11086426,7.67958984 C1.11086426,7.33249512 1.39328613,7.05007324 1.74038086,7.05007324 L5.22927246,7.05007324 C4.97431641,9.19797363 3.26169434,10.9042969 1.11086426,11.1493652 L1.11086426,7.67958984 L1.11086426,7.67958984 Z M1.74038086,30.9167725 C1.39328613,30.9167725 1.11086426,30.6343506 1.11086426,30.2872559 L1.11086426,26.7396973 C3.27832031,26.9969971 4.99716797,28.7383301 5.21755371,30.9167725 L1.74038086,30.9167725 Z M36.3891357,30.2872559 C36.3891357,30.6343506 36.1066406,30.9167725 35.7596191,30.9167725 L32.0040527,30.9167725 C32.2337402,28.645752 34.091748,26.8491943 36.3890625,26.714502 L36.3890625,30.2872559 L36.3891357,30.2872559 Z M36.3891357,25.6018066 C33.4790771,25.7394287 31.1254395,28.0327881 30.8902588,30.9166992 L6.33134766,30.9166992 C6.10371094,28.1253662 3.89157715,25.8875977 1.1109375,25.6219482 L1.1109375,12.2660156 C3.87495117,12.0124512 6.08327637,9.81115723 6.34709473,7.05 L30.8746582,7.05 C31.1472656,9.9032959 33.4962158,12.1590088 36.389209,12.2849854 L36.389209,25.6018066 L36.3891357,25.6018066 Z M36.3891357,11.1735352 C34.1091064,11.0504883 32.2582764,9.28996582 31.9924072,7.05014648 L35.7596191,7.05014648 C36.1066406,7.05014648 36.3891357,7.33256836 36.3891357,7.67966309 L36.3891357,11.1735352 Z" id="Shape"></path>
                <path d="M18.75,10.5276123 C14.0875488,10.5276123 10.2942627,14.3208252 10.2942627,18.9834229 C10.2942627,23.645874 14.0874756,27.4391602 18.75,27.4391602 C23.4125244,27.4391602 27.2057373,23.6459473 27.2057373,18.9834229 C27.2057373,14.3208984 23.4124512,10.5276123 18.75,10.5276123 Z M18.75,26.3282959 C14.7,26.3282959 11.4052002,23.0334961 11.4052002,18.9834961 C11.4052002,14.9334961 14.7,11.638623 18.75,11.638623 C22.8,11.638623 26.0947998,14.9334961 26.0947998,18.9834961 C26.0947998,23.0334961 22.8,26.3282959 18.75,26.3282959 Z" id="Shape"></path>
                <path d="M23.6859375,17.0879883 L20.6453613,17.0879883 L20.6453613,14.0474121 C20.6453613,13.7406006 20.3967773,13.4919434 20.0898926,13.4919434 L17.4099609,13.4919434 C17.1031494,13.4919434 16.8544922,13.7405273 16.8544922,14.0474121 L16.8544922,17.0879883 L13.813916,17.0879883 C13.5071045,17.0879883 13.2584473,17.3365723 13.2584473,17.643457 L13.2584473,20.3233887 C13.2584473,20.6302002 13.5070312,20.8788574 13.813916,20.8788574 L16.8544922,20.8788574 L16.8544922,23.9194336 C16.8544922,24.2262451 17.1030762,24.4749023 17.4099609,24.4749023 L20.0898926,24.4749023 C20.3967041,24.4749023 20.6453613,24.2263184 20.6453613,23.9194336 L20.6453613,20.8788574 L23.6859375,20.8788574 C23.992749,20.8788574 24.2414062,20.6302734 24.2414062,20.3233887 L24.2414062,17.643457 C24.2414062,17.3366455 23.9928223,17.0879883 23.6859375,17.0879883 Z M23.130542,19.7679932 L20.0899658,19.7679932 C19.7831543,19.7679932 19.5344971,20.0165771 19.5344971,20.3234619 L19.5344971,23.3640381 L17.9655029,23.3640381 L17.9655029,20.3234619 C17.9655029,20.0166504 17.7169189,19.7679932 17.4100342,19.7679932 L14.369458,19.7679932 L14.369458,18.198999 L17.4100342,18.198999 C17.7168457,18.198999 17.9655029,17.950415 17.9655029,17.6435303 L17.9655029,14.6029541 L19.5344971,14.6029541 L19.5344971,17.6435303 C19.5344971,17.9503418 19.7830811,18.198999 20.0899658,18.198999 L23.130542,18.198999 L23.130542,19.7679932 Z" id="Shape"></path>
            </g>
        </g>
    </g>
</svg>